<?xml version="1.0" encoding="UTF-8"?>
<svg id="_레이어_1" data-name="레이어_1" xmlns="http://www.w3.org/2000/svg" version="1.1" viewBox="0 0 612 792">
  <!-- Generator: Adobe Illustrator 30.2.1, SVG Export Plug-In . SVG Version: 2.1.1 Build 1)  -->
  <defs>
    <style>
      .st0 {
        font-family: Pretendard-SemiBold-KSCpc-EUC-H, Pretendard;
        font-weight: 600;
      }

      .st0, .st1, .st2, .st3, .st4, .st5, .st6, .st7, .st8, .st9, .st10 {
        isolation: isolate;
      }

      .st0, .st1, .st2, .st7 {
        font-size: 12px;
      }

      .st0, .st2, .st7, .st9 {
        fill: #f0f4f9;
      }

      .st11 {
        fill: #465567;
      }

      .st12, .st4 {
        fill: #ec9a1a;
      }

      .st1, .st2, .st4, .st5, .st6, .st7, .st8, .st9, .st10 {
        font-weight: 700;
      }

      .st1, .st4, .st5, .st7 {
        font-family: Pretendard-ExtraBold-KSCpc-EUC-H, Pretendard;
      }

      .st1, .st13 {
        fill: #111112;
      }

      .st2, .st6, .st8, .st9, .st10 {
        font-family: Pretendard-Bold-KSCpc-EUC-H, Pretendard;
      }

      .st14, .st15, .st16, .st17, .st18 {
        fill: none;
      }

      .st15 {
        stroke: #d17512;
        stroke-width: 2.5px;
      }

      .st19 {
        fill: #18181b;
      }

      .st16 {
        stroke: #627288;
        stroke-width: 4px;
      }

      .st3 {
        fill: #fff;
        font-family: Pretendard-Black-KSCpc-EUC-H, Pretendard;
        font-size: 30px;
        font-weight: 800;
        letter-spacing: .2em;
      }

      .st20 {
        fill: #42b2e7;
      }

      .st21 {
        fill: #9788bf;
      }

      .st4, .st5 {
        font-size: 13px;
        letter-spacing: .08em;
      }

      .st22 {
        fill: #040000;
        opacity: .79;
      }

      .st5, .st6 {
        fill: #92a1b5;
      }

      .st6 {
        font-size: 9px;
        letter-spacing: .11em;
      }

      .st23 {
        fill: #191a1d;
      }

      .st17 {
        stroke-width: 1.5px;
      }

      .st17, .st13, .st18 {
        stroke: #27272a;
      }

      .st8 {
        font-size: 11px;
        letter-spacing: .27em;
      }

      .st8, .st24 {
        fill: #627288;
      }

      .st9, .st10 {
        font-size: 11.5px;
      }

      .st10 {
        fill: #f1ba2f;
      }

      .st18 {
        stroke-width: 2px;
      }
    </style>
  </defs>
  <rect class="st22" x="31.64" y="45.26" width="893.01" height="322.36" rx="12" ry="12"/>
  <g>
    <circle class="st11" cx="60.5" cy="66.51" r="12"/>
    <text class="st7" transform="translate(56.05 71.01)"><tspan x="0" y="0">A</tspan></text>
    <text class="st5" transform="translate(80.5 71.51)"><tspan x="0" y="0">INPUT SOURCES</tspan></text>
    <g>
      <rect class="st19" x="48.5" y="88.51" width="172.81" height="110" rx="8" ry="8"/>
      <rect class="st18" x="48.5" y="88.51" width="172.81" height="110" rx="8" ry="8"/>
    </g>
    <rect class="st13" x="56.66" y="107.51" width="155.03" height="32" rx="6" ry="6"/>
    <circle class="st20" cx="74.5" cy="123.51" r="3.5"/>
    <text class="st0" transform="translate(87.5 127.51)"><tspan x="0" y="0">GenBank / SnapGene</tspan></text>
    <rect class="st13" x="56.66" y="149.51" width="155.03" height="32" rx="6" ry="6"/>
    <circle class="st21" cx="74.5" cy="165.51" r="3.5"/>
    <text class="st0" transform="translate(87.5 169.51)"><tspan x="0" y="0">EVOLVEpro CSV</tspan></text>
  </g>
  <path class="st14" d=""/>
  <path class="st24" d="M291.32,164.51" marker-end="url(#arrow-v2)"/>
  <path class="st14" d=""/>
  <path class="st24" d="M721.32,164.51" marker-end="url(#arrow-v2)"/>
  <g>
    <circle class="st11" cx="753.32" cy="66.51" r="12"/>
    <text class="st7" transform="translate(748.91 71.01)"><tspan x="0" y="0">C</tspan></text>
    <text class="st5" transform="translate(773.32 71.51)"><tspan x="0" y="0">ARTIFACTS</tspan></text>
    <g>
      <rect class="st19" x="741.32" y="88.51" width="171.07" height="150" rx="8" ry="8"/>
      <rect class="st18" x="741.32" y="88.51" width="171.07" height="150" rx="8" ry="8"/>
    </g>
    <rect class="st13" x="749.45" y="92.01" width="150.14" height="40" rx="6" ry="6"/>
    <text class="st2" transform="translate(769.45 118.01)"><tspan x="0" y="0">Plate Maps (96-well)</tspan></text>
    <rect class="st13" x="749.45" y="142.01" width="150.14" height="40" rx="6" ry="6"/>
    <text class="st2" transform="translate(769.45 168.01)"><tspan x="0" y="0">Excel Order Sheets</tspan></text>
    <rect class="st13" x="749.45" y="192.01" width="150.14" height="40" rx="6" ry="6"/>
    <text class="st2" transform="translate(769.45 218.01)"><tspan x="0" y="0">JSON Project Data</tspan></text>
  </g>
  <g>
    <circle class="st12" cx="343.07" cy="66.51" r="12"/>
    <text class="st1" transform="translate(339.22 71.01)"><tspan x="0" y="0">B</tspan></text>
    <text class="st4" transform="translate(363.07 71.51)"><tspan x="0" y="0">DESIGN ENGINE</tspan></text>
  </g>
  <g>
    <g>
      <rect class="st19" x="331.07" y="89.21" width="315.17" height="248.53" rx="10" ry="10"/>
      <rect class="st15" x="331.07" y="89.21" width="315.17" height="248.53" rx="10" ry="10"/>
    </g>
    <text class="st3" transform="translate(434.42 121.75)"><tspan x="0" y="0">KURO</tspan></text>
    <text class="st6" transform="translate(361.92 139.75)"><tspan x="0" y="0">Kernel for Upstream Recombination Oligodesign</tspan></text>
    <line class="st17" x1="355.56" y1="145.75" x2="615.56" y2="145.75"/>
    <g>
      <rect class="st23" x="340.56" y="157.75" width="290" height="35" rx="6" ry="6"/>
      <text class="st10" transform="translate(355.56 179.75)"><tspan x="0" y="0">01</tspan></text>
      <text class="st9" transform="translate(380.56 179.75)"><tspan x="0" y="0">Mutation &amp; Position Parsing</tspan></text>
      <rect class="st23" x="340.56" y="202.75" width="290" height="35" rx="6" ry="6"/>
      <text class="st10" transform="translate(355.56 224.75)"><tspan x="0" y="0">02</tspan></text>
      <text class="st9" transform="translate(380.56 224.75)"><tspan x="0" y="0">Primer3 + Tm Optimization</tspan></text>
      <rect class="st23" x="340.56" y="247.75" width="290" height="35" rx="6" ry="6"/>
      <text class="st10" transform="translate(355.56 269.75)"><tspan x="0" y="0">03</tspan></text>
      <text class="st9" transform="translate(380.56 269.75)"><tspan x="0" y="0">Off-target &amp; Specificity Scan</tspan></text>
      <rect class="st23" x="340.56" y="292.75" width="290" height="35" rx="6" ry="6"/>
      <text class="st10" transform="translate(355.56 314.75)"><tspan x="0" y="0">04</tspan></text>
      <text class="st9" transform="translate(380.56 314.75)"><tspan x="0" y="0">Gibson Overlap Design</tspan></text>
    </g>
    <text class="st8" transform="translate(330.04 358.22)"><tspan x="0" y="0">TAURI • REACT • PRIMER3 • BIOPYTHON</tspan></text>
  </g>
  <g>
    <line class="st16" x1="662.07" y1="170.11" x2="709.3" y2="170.11"/>
    <polygon class="st24" points="704.55 177.08 730.56 170.11 704.55 163.13 704.55 177.08"/>
  </g>
  <g>
    <line class="st16" x1="232.07" y1="170.11" x2="279.3" y2="170.11"/>
    <polygon class="st24" points="274.55 177.08 300.56 170.11 274.55 163.13 274.55 177.08"/>
  </g>
</svg>